<?xml version="1.0" encoding="iso-8859-1"?>
<!-- Uploaded to: SVG Repo, www.svgrepo.com, Generator: SVG Repo Mixer Tools -->
<svg fill="#000000" height="800px" width="800px" version="1.1" id="Layer_1" xmlns="http://www.w3.org/2000/svg" xmlns:xlink="http://www.w3.org/1999/xlink" 
	 viewBox="0 0 512 512" xml:space="preserve">
<g>
	<g>
		<path d="M389.565,100.174c-5.853,0-11.473,1.011-16.696,2.858V83.478c0-27.619-22.468-50.087-50.087-50.087
			c-6.511,0-12.739,1.25-18.451,3.522C298.533,15.668,279.06,0,256,0s-42.533,15.668-48.332,36.913
			c-5.712-2.272-11.94-3.522-18.451-3.522c-27.619,0-50.087,22.468-50.087,50.087v86.337c-5.222-1.848-10.842-2.858-16.696-2.858
			c-27.619,0-50.087,22.468-50.087,50.087v111.304c0,55.479,24.233,106.646,66.783,141.679v25.277
			c0,9.223,7.473,16.696,16.696,16.696h200.348c9.223,0,16.696-7.473,16.696-16.696v-26.81
			c41.956-36.293,66.783-90.744,66.783-147.32V150.261C439.652,122.642,417.184,100.174,389.565,100.174z M139.13,228.174v38.957
			h-33.391v-50.087c0-9.206,7.49-16.696,16.696-16.696c9.206,0,16.696,7.49,16.696,16.696V228.174z M239.304,50.087
			c0-9.206,7.49-16.696,16.696-16.696s16.696,7.49,16.696,16.696v116.87h-33.391V50.087z M172.522,83.478
			c0-9.206,7.49-16.696,16.696-16.696s16.696,7.49,16.696,16.696v116.87h-33.391V83.478z M339.478,400.696
			c0,9.223-7.473,16.696-16.696,16.696H189.217c-9.223,0-16.696-7.473-16.696-16.696v-33.391c0-27.619,22.468-50.087,50.087-50.087
			h66.783c27.619,0,50.087,22.468,50.087,50.087V400.696z M339.478,200.348h-33.391V83.478c0-9.206,7.49-16.696,16.696-16.696
			c9.206,0,16.696,7.49,16.696,16.696V200.348z M406.261,233.739H372.87v-83.478c0-9.206,7.49-16.696,16.696-16.696
			c9.206,0,16.696,7.49,16.696,16.696V233.739z"/>
	</g>
</g>
</svg>